<svg xmlns="http://www.w3.org/2000/svg" viewBox="0 0 128 128">
  <defs>
    <linearGradient id="gold" x1="16" x2="112" y1="20" y2="108">
      <stop stop-color="#f7dd35"/>
      <stop offset="1" stop-color="#7d775a"/>
    </linearGradient>
  </defs>
  <rect width="128" height="128" rx="28" fill="#111110"/>
  <rect x="8" y="8" width="112" height="112" rx="23" fill="url(#gold)"/>
  <path d="M25 70c13-24 42-34 74-29 12 2 18 8 18 17 0 11-12 18-32 18H51c-11 0-20-2-26-6Z" fill="none" stroke="#2a2308" stroke-width="5" stroke-linecap="round" stroke-linejoin="round"/>
  <path d="M27 66c11-13 28-22 55-27-9 9-16 19-22 32M61 79c-8 12-21 18-37 16 8-6 15-13 22-22M76 78l-11 20m-17-18-14 17m56-21 13 16" fill="none" stroke="#2a2308" stroke-width="5" stroke-linecap="round" stroke-linejoin="round"/>
  <circle cx="88" cy="54" r="10" fill="none" stroke="#2a2308" stroke-width="5"/>
  <circle cx="106" cy="55" r="3" fill="#2a2308"/>
</svg>
